<svg width="54" height="54" viewBox="0 0 54 54" fill="none" xmlns="http://www.w3.org/2000/svg">
<g id="Frame" clip-path="url(#clip0_35_199)">
<path id="Vector" d="M4.50903 49.5L7.55103 38.322C5.54659 34.8859 4.4935 30.978 4.50003 27C4.50003 14.5733 14.5733 4.5 27 4.5C39.4268 4.5 49.5 14.5733 49.5 27C49.5 39.4268 39.4268 49.5 27 49.5C23.0238 49.5064 19.1175 48.4541 15.6825 46.4513L4.50903 49.5ZM18.8798 16.443C18.5892 16.461 18.3053 16.5376 18.045 16.668C17.801 16.8062 17.5781 16.979 17.3835 17.181C17.1135 17.4353 16.9605 17.6558 16.7963 17.8695C15.9647 18.9517 15.5174 20.2802 15.525 21.645C15.5295 22.7475 15.8175 23.8207 16.2675 24.8242C17.1878 26.8538 18.702 29.0025 20.7023 30.9937C21.1838 31.473 21.654 31.9545 22.1603 32.4023C24.6429 34.588 27.6013 36.1643 30.8003 37.0058L32.0805 37.2015C32.4968 37.224 32.913 37.1925 33.3315 37.1722C33.9868 37.1384 34.6267 36.961 35.2058 36.6525C35.5793 36.4545 35.7548 36.3555 36.0675 36.1575C36.0675 36.1575 36.1643 36.0945 36.3488 35.955C36.6525 35.73 36.8393 35.5703 37.0913 35.307C37.278 35.1135 37.44 34.8863 37.5638 34.6275C37.7393 34.2607 37.9148 33.561 37.9868 32.9782C38.0408 32.5327 38.025 32.2898 38.0183 32.139C38.0093 31.8983 37.809 31.6485 37.5908 31.5427L36.2813 30.9555C36.2813 30.9555 34.3238 30.1028 33.129 29.5583C33.0031 29.5033 32.8681 29.4721 32.7308 29.466C32.5768 29.4502 32.4213 29.4675 32.2746 29.5168C32.1279 29.5661 31.9934 29.6462 31.8803 29.7517V29.7472C31.869 29.7472 31.7183 29.8755 30.0915 31.8465C29.9982 31.972 29.8695 32.0668 29.7221 32.1189C29.5746 32.171 29.415 32.178 29.2635 32.139C29.1169 32.0998 28.9733 32.0502 28.8338 31.9905C28.5548 31.8735 28.458 31.8285 28.2668 31.7453L28.2555 31.7408C26.9683 31.1788 25.7765 30.4197 24.723 29.4908C24.4395 29.2432 24.1763 28.9732 23.9063 28.7122C23.0211 27.8645 22.2496 26.9055 21.6113 25.8592L21.4785 25.6455C21.3832 25.5019 21.3061 25.3469 21.249 25.1842C21.1635 24.8535 21.3863 24.588 21.3863 24.588C21.3863 24.588 21.933 23.9895 22.1873 23.6655C22.399 23.3962 22.5965 23.1161 22.779 22.8263C23.0445 22.3988 23.1278 21.96 22.9883 21.6203C22.3583 20.0813 21.7058 18.549 21.0353 17.028C20.9025 16.7265 20.5088 16.5105 20.151 16.4677C20.0295 16.4542 19.908 16.4408 19.7865 16.4318C19.4844 16.4167 19.1816 16.4197 18.8798 16.4408V16.443Z" fill="white"/>
</g>
<defs>
<clipPath id="clip0_35_199">
<rect width="54" height="54" fill="white"/>
</clipPath>
</defs>
</svg>
