<svg width="41" height="41" viewBox="0 0 41 41" fill="none" xmlns="http://www.w3.org/2000/svg">
<g id="Frame" clip-path="url(#clip0_36_63)">
<path id="Vector" d="M26.3118 35.875V23.9748H30.2973L30.8935 19.3486H26.3118V16.3966C26.3118 15.0572 26.6842 14.1433 28.6043 14.1433H31.0541V10.0057C29.8682 9.87988 28.6762 9.81886 27.4837 9.82292C23.9525 9.82292 21.5352 11.9788 21.5352 15.9388V19.3486H17.5412V23.9748H21.5352V35.875H6.83333C6.38026 35.875 5.94573 35.695 5.62536 35.3746C5.30498 35.0543 5.125 34.6197 5.125 34.1667V6.83333C5.125 6.38026 5.30498 5.94573 5.62536 5.62536C5.94573 5.30498 6.38026 5.125 6.83333 5.125H34.1667C34.6197 5.125 35.0543 5.30498 35.3746 5.62536C35.695 5.94573 35.875 6.38026 35.875 6.83333V34.1667C35.875 34.6197 35.695 35.0543 35.3746 35.3746C35.0543 35.695 34.6197 35.875 34.1667 35.875H26.3118Z" fill="white"/>
</g>
<defs>
<clipPath id="clip0_36_63">
<rect width="41" height="41" fill="white"/>
</clipPath>
</defs>
</svg>
