<svg width="44" height="44" viewBox="0 0 44 44" fill="none" xmlns="http://www.w3.org/2000/svg">
<circle cx="22" cy="22" r="22" fill="white"/>
<g clip-path="url(#clip0_9_46)">
<path d="M25.366 13.438L28.577 19H32V21H30.833L30.076 30.083C30.0552 30.3329 29.9413 30.5658 29.7568 30.7357C29.5723 30.9055 29.3308 30.9999 29.08 31H14.92C14.6692 30.9999 14.4277 30.9055 14.2432 30.7357C14.0587 30.5658 13.9448 30.3329 13.924 30.083L13.166 21H12V19H15.422L18.634 13.438L20.366 14.438L17.732 19H26.267L23.634 14.438L25.366 13.438ZM28.826 21H15.173L15.84 29H28.159L28.826 21ZM23 23V27H21V23H23ZM19 23V27H17V23H19ZM27 23V27H25V23H27Z" fill="#F73D27"/>
</g>
<defs>
<clipPath id="clip0_9_46">
<rect width="24" height="24" fill="white" transform="translate(10 10)"/>
</clipPath>
</defs>
</svg>
